#tb 0: 1/1000
0,          0,          0,        0,      510, bfeeaf51f972fd0dfe9ee757083cbb54
0,         33,         33,        0,      510, 10cd4ed6d762004846412d9cd0caa407
0,         66,         66,        0,      510, 04cca4008d656ed180de88dd2ddb4f21
0,        100,        100,        0,      510, ec777e377836895748c06849fa35ed2d
0,        133,        133,        0,      510, b55633d0f9239dff3e45a4abce4a35a7
0,        166,        166,        0,      510, 063c3ab4b4c599942c3a8a5b7bfe5029
0,        200,        200,        0,      510, 07b920169d32b5fc51d5b9ae16fef5bf
0,        233,        233,        0,      510, 8d49e727db9d3072b5ab7bab2133d9be
0,        266,        266,        0,      510, 17441437203447e946a57d2f96966332
0,        300,        300,        0,      510, 5d3f14af0e5cd81d0c7d2059f13efa5a
